<svg version="1.1" id="Layer_1" xmlns="http://www.w3.org/2000/svg" xmlns:xlink="http://www.w3.org/1999/xlink" x="0px" y="0px"
	 width="100%" viewBox="0 0 496 496" enable-background="new 0 0 496 496" xml:space="preserve">
<path fill="#000000" opacity="1.000000" stroke="none" 
	d="
M451.267334,247.176941 
	C452.730072,276.938385 449.023865,305.405609 438.302338,332.861237 
	C424.829529,367.362396 403.551361,396.027740 374.442535,418.854614 
	C345.879608,441.253387 313.522675,454.968994 277.518951,459.328369 
	C225.712555,465.601166 177.746918,454.838623 135.122711,424.159882 
	C90.498230,392.041473 62.905228,348.754517 53.653900,294.378448 
	C45.730511,247.807510 52.591640,203.290527 76.285667,162.301025 
	C108.328178,106.869049 156.041412,72.439751 219.646881,62.722878 
	C282.058167,53.188431 337.831970,69.205429 385.302795,111.528831 
	C419.587524,142.096008 440.437592,180.246933 448.556732,225.460312 
	C449.823883,232.516815 450.218201,239.637268 451.267334,247.176941 
M76.039253,327.542847 
	C87.773560,357.635956 105.535744,383.590942 130.757935,403.818878 
	C191.952850,452.896545 259.620850,462.104706 330.564697,429.935730 
	C406.173553,395.651459 448.727692,315.488892 436.500244,232.618042 
	C432.130096,202.999832 421.604706,175.554138 403.474762,151.604416 
	C357.269684,90.567444 295.650330,64.916191 220.120163,75.823853 
	C175.173401,82.314835 137.888702,104.659447 108.301865,139.310913 
	C83.011063,168.930939 68.195892,203.281250 64.562462,241.951645 
	C61.841694,270.908783 65.124359,299.446960 76.039253,327.542847 
z"/>
<path fill="#000000" opacity="1.000000" stroke="none" 
	d="
M186.639435,310.619629 
	C186.675400,298.667419 185.223465,286.911316 187.156265,275.740845 
	C189.176147,264.066925 189.051224,252.509430 188.311813,241.081482 
	C187.795197,233.096863 185.985031,225.013321 186.779663,217.029114 
	C189.454025,190.157791 197.414810,166.126236 224.341171,153.515778 
	C227.641434,151.970139 231.165070,150.878632 234.634109,149.723648 
	C237.255356,148.850922 240.171280,148.720230 240.555344,144.867233 
	C240.707062,143.345093 242.726059,143.009384 244.203522,142.694473 
	C248.659836,141.744583 253.095413,141.791122 257.603363,142.563263 
	C260.903168,143.128448 263.661194,143.803696 262.572021,148.079971 
	C272.654724,150.867752 282.047943,154.036697 290.042267,160.490372 
	C304.572601,172.220459 311.918793,187.409378 314.439636,205.827332 
	C315.679626,214.886780 317.954529,224.157257 315.910583,232.807144 
	C313.078827,244.790771 313.252716,256.836700 314.780396,268.364807 
	C317.461761,288.598999 315.149902,308.847076 317.190033,329.009857 
	C318.041138,337.421509 317.223450,345.991638 317.433533,354.483063 
	C317.533295,358.513885 316.169678,360.137665 311.987854,360.126282 
	C271.657867,360.016449 231.327499,360.005585 190.997421,360.079834 
	C186.803879,360.087555 184.699203,358.726898 185.083435,354.321045 
	C185.967941,344.178955 184.701447,334.025879 185.162979,323.888000 
	C185.358063,319.602844 186.129639,315.343933 186.639435,310.619629 
M297.697083,319.726532 
	C299.886658,308.887817 298.898102,297.836578 299.323639,286.927124 
	C300.165161,265.353424 300.322479,243.696899 298.346893,222.201553 
	C294.867584,224.336029 293.822754,227.593094 294.138031,231.715027 
	C294.442169,235.691299 294.263428,239.706543 294.249054,243.704498 
	C294.237213,246.997696 293.711578,250.322601 290.375305,251.750076 
	C287.387390,253.028519 287.225494,255.150650 287.241943,257.771088 
	C287.313110,269.099792 287.087860,280.435852 287.442871,291.754425 
	C287.574097,295.937683 287.155823,299.827484 286.053864,303.832855 
	C281.987366,318.613739 265.848602,331.863403 251.266068,330.542969 
	C240.598190,329.577026 230.449066,325.871826 223.572571,316.531036 
	C219.059052,310.400024 215.600800,303.698212 215.454620,296.040253 
	C215.200455,282.726837 215.566925,269.401520 215.680908,256.081268 
	C215.695953,254.322540 215.490784,252.856522 213.397110,252.209381 
	C209.582794,251.030441 208.600342,248.049545 208.648209,244.372086 
	C208.719757,238.875870 208.627777,233.377228 208.576294,227.879898 
	C208.562851,226.445801 208.160767,225.088303 206.449799,225.039841 
	C204.599564,224.987442 204.483643,226.532257 204.388016,227.864731 
	C204.007950,233.159500 203.393646,238.456696 203.375168,243.754761 
	C203.307236,263.232605 203.430893,282.706970 203.902161,302.186249 
	C204.179596,313.653717 205.959274,325.064636 205.110458,336.562927 
	C204.892914,339.509857 206.240753,340.725861 209.245209,340.717590 
	C237.234497,340.640533 265.224030,340.621399 293.213409,340.653015 
	C296.404663,340.656616 297.733246,339.357483 297.670715,336.176117 
	C297.569244,331.014862 297.664581,325.849731 297.697083,319.726532 
M233.539352,207.821472 
	C243.495956,208.748337 253.338043,206.424316 263.266663,206.761536 
	C267.913635,206.919373 272.551270,207.364166 277.191742,207.697906 
	C280.908783,207.965240 281.735138,206.452103 280.856842,202.873795 
	C277.894653,190.805435 267.369659,181.285919 255.281921,180.108902 
	C241.209946,178.738663 229.424698,185.413483 223.695923,197.998291 
	C219.769684,206.623398 220.554657,207.836823 230.060730,207.835373 
	C230.893051,207.835251 231.725357,207.830292 233.539352,207.821472 
M214.216095,220.612839 
	C233.666336,220.649017 253.116592,220.689819 272.566833,220.718628 
	C278.718964,220.727737 284.871155,220.689819 291.023254,220.703918 
	C293.544312,220.709702 294.695953,219.454849 294.569397,216.996384 
	C294.454498,214.764908 295.178680,211.843842 291.805664,211.533691 
	C288.534088,211.232864 285.103912,210.687653 281.941467,211.991547 
	C276.744171,214.134415 271.271210,214.454498 265.847809,214.260193 
	C260.821350,214.080109 254.919418,218.282593 250.839081,211.712311 
	C250.474380,211.125061 248.637390,211.369263 247.483963,211.367584 
	C236.175476,211.351044 224.866364,211.429840 213.558792,211.328568 
	C210.224533,211.298706 208.250946,211.935852 208.253281,215.942902 
	C208.255524,219.795197 209.873901,221.041687 214.216095,220.612839 
M219.107468,200.841965 
	C224.870590,184.278412 237.347153,175.727264 254.404312,176.650253 
	C268.143921,177.393738 280.524292,188.003143 283.951294,201.792206 
	C284.541901,204.168488 283.608612,208.782211 288.112274,207.353928 
	C291.683105,206.221466 289.352905,202.531052 289.178558,199.919830 
	C289.157043,199.597519 288.970398,199.289215 288.885773,198.967697 
	C285.035553,184.343491 269.539459,169.111084 247.249542,171.145233 
	C230.821793,172.644424 214.339554,187.976959 212.671951,204.257935 
	C212.494919,205.986404 212.678238,207.275970 214.619095,207.608871 
	C216.335297,207.903214 217.563522,207.270218 218.005936,205.494049 
	C218.327499,204.203033 218.591766,202.897736 219.107468,200.841965 
M279.937347,178.533249 
	C287.804413,185.431763 291.895416,194.294769 293.399384,204.488342 
	C293.545502,205.478745 293.409332,206.869003 294.379150,207.147934 
	C299.019409,208.482529 297.791718,212.457443 298.279999,216.564316 
	C298.777374,212.817749 299.623383,209.998032 299.442993,207.245590 
	C297.914886,183.928223 281.715088,167.404388 260.967590,162.631393 
	C257.430725,161.817734 255.640228,163.238083 255.613846,167.347702 
	C264.364777,169.222122 272.737854,171.834717 279.937347,178.533249 
M302.376068,206.989319 
	C302.507355,208.903290 302.727509,210.959656 305.313171,210.664612 
	C307.893219,210.370224 307.615723,208.247589 307.402649,206.394485 
	C307.231934,204.909805 306.865662,203.445328 306.734161,201.958771 
	C304.804504,180.146790 284.665405,158.351471 263.247131,154.761612 
	C260.150482,154.242599 258.990326,155.405884 258.618927,158.542892 
	C283.773499,164.767044 300.116241,179.042542 302.376068,206.989319 
M226.874466,175.277878 
	C233.019882,170.907608 240.182831,168.872849 247.287140,167.144760 
	C247.068314,162.391388 244.721558,161.978714 241.456085,162.791977 
	C224.221542,167.084137 212.291794,177.460617 206.134354,194.106720 
	C204.037582,199.775192 202.347214,205.729614 204.149887,213.089752 
	C205.080475,210.463394 205.129105,208.492172 207.250092,207.949020 
	C209.218674,207.444885 209.475922,205.832260 209.680420,204.071274 
	C211.059265,192.197144 216.799316,182.842453 226.874466,175.277878 
M238.330246,155.168823 
	C230.608093,156.989670 223.556168,160.199066 217.361298,165.217239 
	C204.578140,175.572296 197.130585,188.792282 195.814240,205.301315 
	C195.657303,207.269516 194.077988,210.146927 197.359741,210.592422 
	C200.599243,211.032166 199.709885,207.679276 200.401932,205.858063 
	C200.574142,205.404846 200.555954,204.875443 200.602661,204.378922 
	C202.679565,182.299759 218.304565,164.702774 240.173630,159.783173 
	C241.796570,159.418060 244.414001,159.963791 244.012497,157.125275 
	C243.597092,154.188705 241.421143,154.075043 238.330246,155.168823 
M260.715332,311.176361 
	C262.817078,306.326752 260.619781,302.742157 256.945740,300.018127 
	C253.240952,297.271332 247.854889,297.929749 244.582489,301.051056 
	C241.703308,303.797241 240.511734,307.110962 241.864014,310.947968 
	C243.307770,315.044525 246.412308,317.680420 250.646194,318.034882 
	C255.151398,318.412109 258.529022,316.073395 260.715332,311.176361 
M265.500275,245.183945 
	C247.904816,245.183945 230.309357,245.183945 212.509262,245.183945 
	C212.296509,248.547134 214.548828,248.953568 216.972870,248.987000 
	C222.634415,249.065125 228.297150,249.075302 233.959427,249.077698 
	C250.613113,249.084747 267.266815,249.085724 283.920441,249.060516 
	C286.768829,249.056198 289.816803,249.206406 290.462219,245.163376 
	C282.093628,245.163376 274.296997,245.163376 265.500275,245.183945 
M200.521561,319.927582 
	C197.789200,318.848633 194.934662,319.458466 192.134933,319.335510 
	C189.371964,319.214142 188.279907,320.673676 188.329483,323.344696 
	C188.403564,327.336517 188.360855,331.330688 188.348816,335.323822 
	C188.343307,337.153107 188.757172,338.940857 190.926788,338.808716 
	C194.333923,338.601257 197.806351,339.611694 201.663208,338.429443 
	C201.663208,334.185730 201.698547,330.057220 201.646912,325.929749 
	C201.624283,324.121368 201.974670,322.259491 200.521561,319.927582 
M314.047241,329.485504 
	C314.138428,318.971619 313.545441,318.373474 304.885620,319.325684 
	C302.429810,319.595764 301.289673,320.638123 301.302612,323.091766 
	C301.323639,327.080170 301.292908,331.069061 301.254425,335.057465 
	C301.228546,337.738342 302.415436,339.061523 305.196289,338.891571 
	C306.851776,338.790375 308.520782,338.825684 310.180084,338.891449 
	C312.967194,339.001892 314.095306,337.581726 314.040283,334.937134 
	C314.009155,333.441986 314.037262,331.945648 314.047241,329.485504 
M198.796600,315.572632 
	C199.195740,315.283875 199.866440,315.060120 199.953506,314.696625 
	C201.368027,308.791779 201.188065,302.702179 200.165421,296.908630 
	C199.556885,293.461090 195.196335,294.589966 192.356094,294.477905 
	C189.933395,294.382324 189.417526,296.193909 189.417419,298.234955 
	C189.417160,302.400879 189.625000,306.583893 189.316818,310.727844 
	C189.018890,314.733887 190.584579,316.289856 194.464828,315.869690 
	C195.620514,315.744568 196.794357,315.787048 198.796600,315.572632 
M305.365112,294.410461 
	C302.490356,294.407288 302.329620,296.414581 302.317780,298.528320 
	C302.296417,302.349274 302.463806,306.182709 302.208649,309.987885 
	C301.927307,314.182465 303.315491,315.969604 307.809204,315.942963 
	C312.357208,315.915924 313.062531,313.627655 312.856995,309.959259 
	C312.708527,307.309387 312.899048,304.642273 312.816925,301.986603 
	C312.591248,294.689270 314.175110,294.920410 305.365112,294.410461 
M302.668457,237.510300 
	C302.579773,247.478470 302.468903,257.446533 302.423035,267.414886 
	C302.414886,269.183777 302.143860,271.594543 304.830688,271.437805 
	C307.441345,271.285553 306.910980,268.829346 306.941315,267.113434 
	C307.102997,257.970245 307.150940,248.825043 307.304230,239.681641 
	C307.358734,236.429810 306.219788,235.226593 302.668457,237.510300 
M312.657013,280.801270 
	C312.318115,275.542633 311.364166,274.875549 305.850769,275.405823 
	C303.433014,275.638367 301.752289,276.602448 302.518799,279.052673 
	C303.744965,282.972107 299.760651,288.614044 305.060150,290.795349 
	C311.055542,293.263062 312.664673,291.604095 312.675415,285.162689 
	C312.677338,284.007507 312.666870,282.852295 312.657013,280.801270 
M222.713379,287.286682 
	C222.717636,281.457489 222.910583,275.620575 222.672287,269.801300 
	C222.440826,264.148987 223.819824,258.283081 221.415039,251.974167 
	C218.488831,256.662079 218.560501,291.118683 221.037491,294.517944 
	C223.515961,292.887939 222.403915,290.342316 222.713379,287.286682 
M283.693695,261.614502 
	C283.139984,258.643768 285.059387,255.092865 281.773407,252.528549 
	C279.214996,257.183807 279.769989,291.844147 283.694733,294.457031 
	C283.694733,283.832764 283.694733,273.208527 283.693695,261.614502 
M198.785645,275.855957 
	C190.857635,274.554169 190.357208,274.943298 190.294937,282.506287 
	C190.279968,284.324493 190.356995,286.145416 190.285324,287.960876 
	C190.120438,292.137482 193.226776,290.925781 195.485825,291.222656 
	C197.899597,291.539856 199.981491,291.333923 199.937469,288.245300 
	C199.881332,284.305908 200.580551,280.322357 198.785645,275.855957 
M225.606400,306.678375 
	C224.198425,304.619202 224.871277,300.935242 220.107758,300.447632 
	C221.621460,309.610138 226.380478,316.032593 233.310287,320.831085 
	C237.730637,323.891876 242.673248,326.241425 248.618073,324.453979 
	C239.072327,321.119446 230.797760,316.485657 225.606400,306.678375 
M200.035522,248.523529 
	C199.699127,244.463593 200.719574,240.305206 199.336411,236.104843 
	C195.603760,236.140793 195.962784,238.728714 195.939362,240.943298 
	C195.844620,249.907516 195.808685,258.872375 195.721710,267.836700 
	C195.705658,269.490295 195.239594,271.512177 197.703873,271.574158 
	C200.062943,271.633514 200.030167,269.588715 200.041153,267.945251 
	C200.082230,261.802124 200.045105,255.658478 200.035522,248.523529 
M273.343628,317.856049 
	C278.188293,313.006073 281.835999,307.541321 282.086792,300.207520 
	C277.269318,304.361877 276.057800,311.055939 271.349884,315.287537 
	C266.425446,319.713715 260.386078,321.679993 253.986404,323.370300 
	C255.460419,326.939941 257.858521,325.828430 259.710632,325.365692 
	C264.635773,324.135193 268.901703,321.535614 273.343628,317.856049 
M261.924652,277.920227 
	C263.387909,280.609680 264.851196,283.299164 266.409760,286.163818 
	C272.681396,278.518890 272.601929,274.290955 266.247528,267.448700 
	C264.809570,270.837585 262.339874,273.608124 261.924652,277.920227 
M250.893311,285.611786 
	C257.263000,280.822144 257.440399,274.187531 251.341629,268.078766 
	C245.838013,273.531494 245.860825,279.256073 250.893311,285.611786 
M240.681564,257.181519 
	C238.128647,262.696228 238.663101,264.836731 243.852478,269.881378 
	C249.944550,263.595886 249.820587,257.965454 243.452972,253.005402 
	C241.896957,253.676651 241.762375,255.339752 240.681564,257.181519 
M240.652664,275.877930 
	C239.277115,272.982880 237.901566,270.087860 236.357941,266.839081 
	C230.299255,276.624298 230.340469,278.822174 236.279144,285.699066 
	C239.134918,282.072418 239.767456,280.796844 240.652664,275.877930 
M262.504791,257.766296 
	C261.310669,256.336456 261.387360,253.821991 258.944366,253.446304 
	C253.102539,259.451324 253.192841,263.457794 259.267029,270.825500 
	C264.215698,263.257507 264.424072,262.515167 262.504791,257.766296 
M276.666077,263.238953 
	C276.249542,259.776886 277.871948,255.890976 274.692047,252.910049 
	C268.220245,258.353058 268.145569,263.170074 274.334900,270.785522 
	C276.640747,269.071960 276.677063,266.592865 276.666077,263.238953 
M214.939240,224.709015 
	C211.815155,229.554047 213.412704,234.744370 213.972763,239.811905 
	C214.093918,240.908234 215.454712,241.536392 216.747696,241.358276 
	C217.898026,241.199814 218.522079,240.318710 218.544083,239.304489 
	C218.636673,235.036392 218.708084,230.762100 218.564346,226.497604 
	C218.512115,224.947372 217.189240,224.387222 214.939240,224.709015 
M227.830719,253.269196 
	C225.202469,259.139740 225.801926,264.900787 227.844208,271.281494 
	C234.713913,263.049927 234.715622,258.351349 227.830719,253.269196 
M287.105896,224.433151 
	C286.363312,224.716019 285.115906,224.829987 284.956055,225.307816 
	C283.314758,230.214172 283.454071,235.347443 284.502411,240.237610 
	C285.014374,242.625778 287.911255,241.871567 288.497955,239.969223 
	C290.084137,234.826462 290.782806,229.520111 287.105896,224.433151 
M255.720764,294.907074 
	C258.292175,295.860535 261.426910,296.761292 262.853546,293.971741 
	C265.134918,289.510986 261.048096,286.559967 259.033173,282.046783 
	C257.284698,286.740448 252.758820,289.356598 255.720764,294.907074 
M242.415146,284.508484 
	C241.381912,286.563538 240.285904,288.589935 239.332382,290.681305 
	C238.289429,292.968842 239.330582,294.739075 241.434631,295.354919 
	C243.399612,295.930054 245.719940,296.311096 247.460388,294.499329 
	C248.755859,293.150818 249.017761,291.361359 247.835022,290.003357 
	C246.116089,288.029724 247.211899,283.627167 242.415146,284.508484 
M264.761902,309.036072 
	C264.658417,310.757538 263.650757,312.619080 265.474884,314.053772 
	C273.569794,311.225861 272.737457,305.112823 266.610168,298.792023 
	C262.903900,301.384155 264.744324,305.005554 264.761902,309.036072 
M235.279877,299.242401 
	C234.474365,300.672058 233.608200,302.071381 232.874283,303.536896 
	C230.258911,308.759644 231.609665,311.753235 238.019913,313.980774 
	C237.763092,309.956879 237.809662,306.121735 238.440903,302.306183 
	C238.671555,300.911987 238.072830,298.936646 235.279877,299.242401 
M274.352539,295.583069 
	C277.680115,292.686371 277.663757,287.413422 274.000366,282.216095 
	C272.670349,284.908936 271.351379,287.345795 270.245697,289.875854 
	C268.784698,293.218872 269.669434,295.357147 274.352539,295.583069 
M226.324356,290.471436 
	C226.573761,292.307129 225.556747,294.720917 228.312637,295.457642 
	C229.762497,295.845215 231.269241,295.785095 232.432159,294.475311 
	C234.113342,292.581818 233.309341,290.764526 232.276505,289.001709 
	C231.134369,287.052399 230.698181,284.664551 228.765564,283.084320 
	C225.998474,284.639679 226.366791,287.223389 226.324356,290.471436 
M248.911240,159.293716 
	C250.438019,155.689880 249.408264,151.913345 249.639114,148.222382 
	C249.750748,146.437851 248.940323,145.241837 246.978287,145.565292 
	C244.995102,145.892227 244.040833,147.059555 244.819733,149.138519 
	C246.043961,152.406036 247.292145,155.664581 248.911240,159.293716 
M257.334473,151.005325 
	C257.538208,150.374100 257.701630,149.726318 257.953094,149.114716 
	C258.776672,147.111679 258.169098,145.837051 256.012054,145.556244 
	C253.687454,145.253616 253.233475,146.797272 253.234802,148.668243 
	C253.237274,152.135025 253.235535,155.601822 253.235535,159.068604 
	C253.541336,159.066299 253.847122,159.063995 254.152924,159.061691 
	C255.116104,156.604202 256.079285,154.146713 257.334473,151.005325 
M310.662292,263.131531 
	C310.662292,254.938110 310.662292,246.744705 310.662292,238.551285 
	C310.567688,238.553329 310.473053,238.555359 310.378448,238.557404 
	C310.378448,246.841553 310.378448,255.125702 310.662292,263.131531 
M308.956787,232.661209 
	C309.805237,232.437820 310.953033,233.129211 311.614044,231.542526 
	C308.792175,230.842453 306.153931,230.761765 303.511902,232.429871 
	C305.083374,232.507095 306.654816,232.584320 308.956787,232.661209 
M306.772156,225.347870 
	C305.706299,225.515518 304.381805,224.923584 303.167206,226.559830 
	C306.335114,226.641968 308.933105,227.099304 311.391785,225.347153 
	C310.096680,225.347153 308.801575,225.347153 306.772156,225.347870 
M304.750000,221.585587 
	C306.976410,221.585587 309.202820,221.585587 311.429260,221.585587 
	C308.941101,220.504837 306.393402,218.752411 304.750000,221.585587 
M308.235565,215.664627 
	C309.309509,215.510117 310.622284,216.078903 311.621643,214.816269 
	C308.698944,214.816269 306.136719,214.816269 303.574463,214.816269 
	C303.591156,215.098175 303.607880,215.380081 303.624603,215.661987 
	C304.916779,215.661987 306.208984,215.661987 308.235565,215.664627 
M196.118927,215.625244 
	C197.142761,215.391144 198.382812,216.106766 199.488434,214.606918 
	C196.646683,214.308624 194.119019,214.143799 191.616730,215.638031 
	C192.881332,215.638031 194.145920,215.638031 196.118927,215.625244 
M198.146896,221.515594 
	C198.499039,221.261307 198.851166,221.007019 199.203293,220.752731 
	C199.108368,220.644653 199.014053,220.442795 198.918427,220.442169 
	C196.312241,220.425049 193.705933,220.428482 189.764084,220.428482 
	C193.202362,221.908234 195.379562,221.479248 198.146896,221.515594 
z"/>
<path fill="#000000" opacity="1.000000" stroke="none" 
	d="
M361.725037,276.198303 
	C353.037201,278.583435 347.064392,275.741364 345.081818,268.613892 
	C343.493042,262.902191 345.980408,257.268555 351.195831,254.766495 
	C356.426025,252.257355 362.712708,253.760239 365.985535,258.302002 
	C369.260620,262.847015 368.952728,269.507690 365.189270,273.543121 
	C364.294586,274.502441 363.134827,275.214478 361.725037,276.198303 
z"/>
<path fill="#000000" opacity="1.000000" stroke="none" 
	d="
M250.999298,118.380783 
	C242.664841,117.726685 239.313385,113.766190 239.636780,105.460968 
	C239.874527,99.355804 244.327576,95.175514 250.729370,95.047829 
	C257.103912,94.920692 262.008972,99.096069 262.337769,104.929283 
	C262.823334,113.543839 259.525787,117.611259 250.999298,118.380783 
z"/>
<path fill="#000000" opacity="1.000000" stroke="none" 
	d="
M144.868896,278.456787 
	C140.611877,283.147980 135.156036,284.825806 130.399643,282.806335 
	C126.512192,281.155792 123.992905,278.276184 123.636856,273.780334 
	C123.228745,268.627289 124.135574,264.199677 129.248245,261.613678 
	C133.211319,259.609161 139.623810,260.238892 142.840332,263.030212 
	C146.754196,266.426727 147.561569,271.847382 144.868896,278.456787 
z"/>
<path fill="#000000" opacity="1.000000" stroke="none" 
	d="
M388.532043,342.013977 
	C381.742157,340.287842 376.132141,336.838776 369.967773,331.945770 
	C375.618591,329.869293 380.406281,330.402802 385.252258,330.089874 
	C384.523682,324.954254 379.481598,321.691864 379.877594,315.425934 
	C386.744019,318.328278 392.738281,321.374054 397.670807,326.399994 
	C392.939423,327.457428 390.076813,323.505463 385.817902,322.285309 
	C386.859100,325.822876 389.818329,328.450195 390.069305,331.950623 
	C387.521698,334.586609 383.843964,332.211243 381.579498,334.550964 
	C382.968933,338.051544 388.599762,337.217285 388.532043,342.013977 
z"/>
<path fill="#000000" opacity="1.000000" stroke="none" 
	d="
M371.834717,352.045319 
	C374.552185,353.069611 377.243927,353.310120 379.528046,355.661804 
	C376.009338,358.120148 372.067078,354.269135 368.850922,358.266449 
	C365.807587,362.049042 369.880432,365.151001 368.124237,368.724670 
	C364.920044,367.093933 364.498291,363.929901 363.125122,361.521362 
	C361.489258,358.652100 360.135651,355.622406 358.643524,352.670441 
	C358.042664,351.481720 357.218445,350.215576 358.310760,349.017181 
	C359.368958,347.856262 360.781891,348.427124 362.036621,348.828644 
	C365.184723,349.835999 368.318604,350.887848 371.834717,352.045319 
z"/>
<path fill="#000000" opacity="1.000000" stroke="none" 
	d="
M324.293396,382.058777 
	C329.531036,384.218781 331.976685,387.987061 331.790436,393.119720 
	C331.665253,396.570343 330.068024,399.510681 326.700195,401.132782 
	C322.380463,403.213379 318.523804,402.235168 315.254791,399.082916 
	C311.825012,395.775665 310.820343,391.718750 312.771271,387.224854 
	C314.920685,382.273651 318.981964,381.154205 324.293396,382.058777 
M315.324066,391.435547 
	C315.776276,396.131531 318.319977,398.855469 323.067383,398.804321 
	C326.653076,398.765656 328.380341,396.340240 328.556824,392.906097 
	C328.754944,389.050629 325.545258,384.966309 321.875885,384.766418 
	C317.941071,384.552124 315.698578,386.702911 315.324066,391.435547 
z"/>
<path fill="#000000" opacity="1.000000" stroke="none" 
	d="
M242.883240,420.808716 
	C237.835190,424.832703 233.674957,425.211060 229.982574,422.250702 
	C226.223602,419.236969 224.910049,413.538635 226.955704,409.119843 
	C228.926239,404.863312 233.409409,402.660492 238.139404,403.624786 
	C245.209412,405.066101 247.573059,413.050079 242.883240,420.808716 
M242.288574,412.057373 
	C241.229507,408.839294 239.436676,406.384918 235.687271,406.427246 
	C232.906021,406.458588 231.115311,408.135864 230.061905,410.590424 
	C228.779465,413.578644 229.050690,416.397125 231.291428,418.872772 
	C233.009918,420.771484 235.223984,421.473907 237.581818,420.598511 
	C241.116486,419.286163 242.334274,416.303802 242.288574,412.057373 
z"/>
<path fill="#000000" opacity="1.000000" stroke="none" 
	d="
M211.670776,420.029510 
	C210.992783,422.829773 209.786270,421.566010 209.092163,420.502167 
	C208.291916,419.275696 207.920959,417.770142 207.355774,416.389008 
	C206.696655,414.778320 205.834229,413.482452 203.819351,413.362976 
	C201.438660,413.221771 201.329300,415.082214 200.719971,416.573120 
	C200.307602,417.582062 200.406479,418.995819 198.689636,419.186340 
	C196.452835,417.996094 197.702530,415.992859 197.918655,414.411743 
	C198.322067,411.460449 198.896118,408.500641 199.762329,405.654907 
	C200.420013,403.494293 199.413849,399.806152 202.811676,399.690857 
	C206.685562,399.559418 211.094162,399.647339 213.582932,403.496552 
	C215.483093,406.435425 215.283249,409.931091 212.504639,412.113525 
	C209.318115,414.616425 210.919128,417.061005 211.670776,420.029510 
M210.166367,409.924255 
	C212.790359,404.727051 211.194489,403.008881 204.058121,403.347809 
	C201.452362,410.201233 202.268845,411.242310 210.166367,409.924255 
z"/>
<path fill="#000000" opacity="1.000000" stroke="none" 
	d="
M404.260742,274.212036 
	C402.358978,276.827240 400.205750,277.668243 397.552246,276.323029 
	C394.470398,274.760681 393.470734,271.954498 393.938629,268.800842 
	C394.324554,266.199768 394.608093,263.118530 398.640625,262.794952 
	C399.522339,265.451050 396.908417,267.181030 397.295349,269.491516 
	C397.542877,270.969879 397.417236,272.710846 399.317749,273.032013 
	C400.872772,273.294861 401.627960,271.956238 402.239014,270.765717 
	C403.145447,268.999573 403.782745,267.068146 404.867218,265.426849 
	C406.516510,262.930664 408.906311,261.929230 411.753113,263.391418 
	C414.417175,264.759735 415.591034,267.262329 415.069305,270.054016 
	C414.449921,273.367889 414.180481,277.221954 409.544556,278.696594 
	C408.840424,275.571808 411.430511,274.088287 411.576782,271.863373 
	C411.703979,269.929169 412.574554,267.517578 410.075439,266.698547 
	C407.801392,265.953278 407.079376,268.180725 406.294403,269.806458 
	C405.645905,271.149536 405.065765,272.525635 404.260742,274.212036 
z"/>
<path fill="#000000" opacity="1.000000" stroke="none" 
	d="
M299.097137,392.666077 
	C294.589752,400.774658 297.647552,405.863373 305.108826,409.418274 
	C305.352753,409.534454 305.444580,409.970001 305.779388,410.559875 
	C303.269073,412.445435 301.631683,410.300079 299.811859,409.324066 
	C297.991028,408.347565 296.427399,405.740753 294.215790,406.976837 
	C291.581329,408.449341 293.206268,411.116028 293.643188,413.305481 
	C293.817261,414.177643 293.784027,414.941223 292.048706,416.372559 
	C288.712219,410.110962 286.620758,403.782196 284.938721,396.779633 
	C290.246918,396.522888 288.403137,401.439850 290.998230,403.079010 
	C293.300964,401.861755 293.428894,399.119659 294.671783,397.143524 
	C295.811157,395.331940 295.721069,392.390472 299.097137,392.666077 
z"/>
<path fill="#000000" opacity="1.000000" stroke="none" 
	d="
M402.757660,295.291199 
	C398.736328,292.485657 393.700256,292.526703 389.781281,289.332977 
	C393.699036,287.595428 403.061646,290.266571 405.987427,293.569305 
	C408.762115,296.701538 408.826996,300.149078 406.894775,303.733185 
	C406.004639,305.384277 404.825989,306.667572 402.980957,307.369537 
	C398.664429,309.011902 389.177277,306.530640 385.741089,302.731140 
	C386.549133,300.969513 387.935181,301.690765 389.131073,302.035614 
	C391.843079,302.817444 394.483887,303.896057 397.232574,304.486176 
	C399.737396,305.023865 402.336609,304.839111 403.889648,302.316772 
	C405.373566,299.906555 405.090210,297.564331 402.757660,295.291199 
z"/>
<path fill="#000000" opacity="1.000000" stroke="none" 
	d="
M261.168213,413.793915 
	C264.723907,418.903351 264.723907,418.903351 275.119263,415.157593 
	C275.150116,419.123596 272.280823,421.693512 267.547119,421.939667 
	C262.891541,422.181702 258.384796,418.130371 257.713593,413.099731 
	C256.808990,406.320312 259.508179,402.121918 265.795349,401.002197 
	C269.225403,400.391357 272.115570,401.270752 273.700714,405.745758 
	C269.488342,405.128052 265.724213,402.451935 262.560211,406.148590 
	C260.737946,408.277710 259.656830,410.625519 261.168213,413.793915 
z"/>
<path fill="#000000" opacity="1.000000" stroke="none" 
	d="
M407.748108,232.007294 
	C398.320068,233.209076 392.991425,229.191330 393.709473,221.820511 
	C393.993713,218.902328 394.735168,218.001755 399.110077,216.290009 
	C396.460022,221.588211 395.010193,226.423920 401.338562,229.021835 
	C404.567352,230.347336 407.263672,229.048584 409.459869,226.862000 
	C413.937744,222.403809 410.223297,218.864334 407.077393,215.301559 
	C411.119629,214.899536 412.905853,216.179245 413.984100,219.589615 
	C415.535187,224.495407 413.706360,228.322144 407.748108,232.007294 
z"/>
<path fill="#000000" opacity="1.000000" stroke="none" 
	d="
M337.217896,374.733765 
	C336.273590,373.272583 334.688232,372.364075 336.241821,369.634521 
	C341.361389,372.769440 343.813263,378.421021 348.030823,382.134430 
	C351.891235,381.390198 353.416809,376.499664 358.524445,376.963562 
	C356.244293,381.668030 352.267395,383.774719 348.709015,386.127228 
	C347.238464,387.099426 346.096863,385.214874 345.150452,384.115234 
	C342.556488,381.101196 340.012939,378.043823 337.217896,374.733765 
z"/>
<path fill="#000000" opacity="1.000000" stroke="none" 
	d="
M400.286194,249.277405 
	C398.401886,249.159058 396.790680,249.452011 396.121918,247.631104 
	C399.550629,245.025848 412.383942,245.040695 416.844147,248.402145 
	C410.970917,249.926010 405.792053,248.990112 400.286194,249.277405 
z"/>
</svg>